<svg xmlns="http://www.w3.org/2000/svg" viewBox="0 0 949.31 841.55"><defs><style>.cls-1{fill:#4957a5;}</style></defs><g id="图层_2" data-name="图层 2"><g id="图层_1-2" data-name="图层 1"><path class="cls-1" d="M948.93,615.59c-1.37-24.91-53.62-569-53.62-569s-1.44-17.39-21.19-6.93-184,109.72-184,109.72-12.56,5.23-12.56,28.77-.78,44.21-.78,44.21.26,7.84-11.51,3.4-120.84-37.67-204-38.71-154.32,17.78-162.69,18.83-14.65,1.05-14.65-21.45,1-40.28,1-40.28-2.09-19.88-24.59-32.43S69.1,2,69.1,2,50.66-8,49.49,17.07.25,622.85.25,622.85s-3.73,32.37,17.65,53.36C45.3,703.1,180.07,838.9,456.15,841.51s445.31-137.84,472.77-170.8C948.93,648.15,950.3,640.5,948.93,615.59ZM838.42,540.72c-40.8,105.15-177.86,22-222.33,1s-79.51,2.62-88.4,7.33-69.06,47.08-172.63,87.36S170.92,598.26,168.83,504.62s64.86-163.73,156.41-170.54,193.55,68,227,82.66c27.43,12,42.35,1.78,47.15-1.93a31.14,31.14,0,0,1,4.4-3c13.92-8.06,78.44-39.82,116.38-53.7,42.89-15.7,74.28-12.56,104.62,22S865.1,473.76,838.42,540.72Z"/><ellipse class="cls-1" cx="376.31" cy="484.74" rx="79.84" ry="92.07"/><ellipse class="cls-1" cx="726.47" cy="465.39" rx="62.77" ry="73.24"/></g></g></svg>